<svg xmlns="http://www.w3.org/2000/svg" viewBox="0 0 128 128">
  <!-- Background circle with Bitcoin orange -->
  <circle cx="64" cy="64" r="60" fill="#F7931A"/>

  <!-- Wallet body -->
  <rect x="24" y="42" width="80" height="54" rx="6" ry="6" fill="#FFFFFF"/>

  <!-- Wallet flap -->
  <path d="M24 50 L24 46 Q24 38 32 38 L96 38 Q104 38 104 46 L104 50 Z" fill="#F0F0F0"/>

  <!-- Wallet clasp -->
  <rect x="88" y="62" width="18" height="14" rx="3" ry="3" fill="#F7931A"/>
  <circle cx="97" cy="69" r="3" fill="#FFFFFF"/>

  <!-- Bitcoin B symbol -->
  <path d="M44 52 L44 88 M48 52 L48 48 M58 52 L58 48 M48 88 L48 92 M58 88 L58 92"
        stroke="#F7931A" stroke-width="3" stroke-linecap="round"/>
  <path d="M48 52 L58 52 Q68 52 68 60 Q68 68 58 68 L48 68 L58 68 Q70 68 70 78 Q70 88 58 88 L48 88"
        fill="none" stroke="#F7931A" stroke-width="4" stroke-linecap="round" stroke-linejoin="round"/>
</svg>
